<svg xmlns="http://www.w3.org/2000/svg" viewBox="0 0 100.01 100"><g fill-rule="evenodd"><path d="M50 13.84a15 15 0 0 0-2.85.27 9.08 9.08 0 0 1 1.49 5 9.27 9.27 0 0 1-9.27 9.27 9.49 9.49 0 0 1-4.3-1.06 13.22 13.22 0 0 0-.07 1.54 15 15 0 1 0 15-15z" fill="#161616"/><path d="M69.66 50l.19-.19zm-.58.52l.08-.07zm1.38-1.3c-.08.09-.17.17-.25.25.08-.11.17-.19.25-.28zm.2-.21c.26-.26.51-.52.75-.79-.24.24-.49.5-.75.78zm24.52-20.42A49.94 49.94 0 0 0 50 0a28.84 28.84 0 0 1 21.89 47.64 29.13 29.13 0 0 0 2.37-3.15 40.37 40.37 0 0 1 14.47 37.16 50 50 0 0 0 6.45-53.06zM71.43 48.16c.16-.17.3-.34.45-.51-.15.17-.29.35-.45.51z" fill="#f6a329"/><path d="M74.26 44.49a28.88 28.88 0 0 1-24.11 13.2 43.28 43.28 0 0 1 38.58 24 40.37 40.37 0 0 0-14.47-37.2z" fill="#f6a329" opacity=".8"/><path d="M42.07 71.74A54.33 54.33 0 0 1 21.17 29v-.12A28.85 28.85 0 0 1 50 0a50 50 0 1 0 38.73 81.65 54.31 54.31 0 0 1-46.66-9.91z" fill="#161616"/><path d="M21.17 29A28.83 28.83 0 0 0 50 57.69h.18a43.32 43.32 0 0 1 38.55 24A54.38 54.38 0 0 1 21.17 29z" fill="#161616" opacity=".8"/></g></svg>
